<?xml version="1.0" encoding="UTF-8"?>
<!DOCTYPE svg PUBLIC "-//W3C//DTD SVG 1.1//EN" "http://www.w3.org/Graphics/SVG/1.1/DTD/svg11.dtd">
<!-- Creator: CorelDRAW -->
<svg xmlns="http://www.w3.org/2000/svg" xml:space="preserve" width="4.4326mm" height="2.5435mm" version="1.1" style="shape-rendering:geometricPrecision; text-rendering:geometricPrecision; image-rendering:optimizeQuality; fill-rule:evenodd; clip-rule:evenodd"
viewBox="0 0 4.3 2.47"
 xmlns:xlink="http://www.w3.org/1999/xlink"
 xmlns:xodm="http://www.corel.com/coreldraw/odm/2003">
 <defs>
  <style type="text/css">
   <![CDATA[
    .fil0 {fill:white}
   ]]>
  </style>
 </defs>
 <g id="Layer_x0020_1">
  <metadata id="CorelCorpID_0Corel-Layer"/>
  <path class="fil0" d="M-0 0.28c0,0.2 0.08,0.24 0.21,0.36 0.09,0.09 0.18,0.18 0.27,0.27l0.94 0.94c0.05,0.05 0.09,0.08 0.14,0.13 0.09,0.09 0.18,0.18 0.27,0.27 0.08,0.08 0.18,0.21 0.33,0.21 0.08,0 0.15,-0.03 0.19,-0.07 0.19,-0.16 0.75,-0.75 0.94,-0.94l0.93 -0.94c0.07,-0.08 0.08,-0.11 0.08,-0.23 0,-0.22 -0.27,-0.38 -0.48,-0.24 -0.11,0.07 -1.6,1.61 -1.67,1.66 -0.08,-0.05 -1.57,-1.59 -1.67,-1.66 -0.21,-0.14 -0.47,0.02 -0.47,0.23z"/>
 </g>
</svg>
