<?xml version="1.0" encoding="UTF-8"?>
<!DOCTYPE svg PUBLIC "-//W3C//DTD SVG 1.1//EN" "http://www.w3.org/Graphics/SVG/1.1/DTD/svg11.dtd">
<!-- Creator: CorelDRAW -->
<svg xmlns="http://www.w3.org/2000/svg" xml:space="preserve" width="21.5644mm" height="21.7904mm" version="1.1" style="shape-rendering:geometricPrecision; text-rendering:geometricPrecision; image-rendering:optimizeQuality; fill-rule:evenodd; clip-rule:evenodd"
viewBox="0 0 292.81 295.88"
 xmlns:xlink="http://www.w3.org/1999/xlink"
 xmlns:xodm="http://www.corel.com/coreldraw/odm/2003">
 <defs>
  <style type="text/css">
   <![CDATA[
    .fil1 {fill:#0569FF;fill-rule:nonzero}
    .fil0 {fill:#64ED81;fill-rule:nonzero}
   ]]>
  </style>
 </defs>
 <g id="Layer_x0020_1">
  <metadata id="CorelCorpID_0Corel-Layer"/>
  <g id="_105553129067008">
   <g id="_105553193521888">
    <g>
     <path class="fil0" d="M254.93 127.26c0,0 8.17,-28.03 11.76,-52.73 2.35,-16.27 -0.65,-28.03 -15.03,-39.46 -14.31,-11.37 -43.64,-5.55 -58.61,2.94 -14.96,8.49 -124.07,63.18 -124.07,63.18 0,0 85,-72 115.91,-89.25 30.97,-17.25 60.57,-14.63 82.39,0.33 21.82,14.96 29.99,44.63 23.13,77.49 -6.86,32.86 -14.63,61.22 -14.63,61.22l-20.84 -23.78 0 0.07z"/>
    </g>
    <g>
     <path class="fil0" d="M127.26 40.04c0,0 -28.03,-8.17 -52.73,-11.76 -16.27,-2.35 -28.03,0.65 -39.46,15.03 -11.37,14.31 -5.55,43.64 2.94,58.61 8.49,14.96 63.18,124.07 63.18,124.07 0,0 -72,-85 -89.25,-115.91 -17.25,-30.97 -14.63,-60.57 0.33,-82.39 14.96,-21.82 44.63,-29.99 77.49,-23.13 32.86,6.86 61.22,14.63 61.22,14.63l-23.78 20.84 0.07 0z"/>
    </g>
    <path class="fil0" d="M37.88 168.62c0,0 -8.17,28.03 -11.76,52.73 -2.35,16.27 0.65,28.03 15.03,39.46 14.31,11.37 43.64,5.55 58.61,-2.94 14.96,-8.49 124.07,-63.18 124.07,-63.18 0,0 -85,72 -115.91,89.25 -30.97,17.25 -60.57,14.63 -82.39,-0.33 -21.82,-14.96 -29.99,-44.63 -23.13,-77.49 6.86,-32.86 14.63,-61.22 14.63,-61.22l20.84 23.78 0 -0.07z"/>
    <path class="fil1" d="M165.55 255.91c0,0 28.03,8.17 52.73,11.76 16.27,2.35 28.03,-0.65 39.46,-15.03 11.37,-14.31 5.55,-43.64 -2.94,-58.61 -8.49,-14.96 -63.18,-124.07 -63.18,-124.07 0,0 72,85 89.25,115.91 17.25,30.97 14.63,60.57 -0.33,82.39 -14.96,21.82 -44.63,29.99 -77.49,23.13 -32.86,-6.86 -61.22,-14.63 -61.22,-14.63l23.78 -20.84 -0.07 0z"/>
    <g>
     <path class="fil1" d="M187.17 145.1c0,24.04 -19.47,43.45 -43.45,43.45 -24.04,0 -43.45,-19.47 -43.45,-43.45 0,-24.04 19.47,-43.45 43.45,-43.45 24.04,0 43.45,19.47 43.45,43.45z"/>
    </g>
   </g>
  </g>
 </g>
</svg>
