<?xml version="1.0" encoding="UTF-8"?>
<!DOCTYPE svg PUBLIC "-//W3C//DTD SVG 1.1//EN" "http://www.w3.org/Graphics/SVG/1.1/DTD/svg11.dtd">
<!-- Creator: CorelDRAW -->
<svg xmlns="http://www.w3.org/2000/svg" xml:space="preserve" width="196.422mm" height="196.422mm" version="1.1" style="shape-rendering:geometricPrecision; text-rendering:geometricPrecision; image-rendering:optimizeQuality; fill-rule:evenodd; clip-rule:evenodd"
viewBox="0 0 37615.67 37615.67"
 xmlns:xlink="http://www.w3.org/1999/xlink"
 xmlns:xodm="http://www.corel.com/coreldraw/odm/2003">
 <defs>
  <style type="text/css">
   <![CDATA[
    .str1 {stroke:#0687FF;stroke-width:67.56;stroke-miterlimit:10}
    .str0 {stroke:#61EF81;stroke-width:67.56;stroke-miterlimit:10}
    .str2 {stroke:white;stroke-width:67.56;stroke-miterlimit:10}
    .fil20 {fill:none}
    .fil1 {fill:none;fill-rule:nonzero}
    .fil6 {fill:#030A38;fill-rule:nonzero}
    .fil4 {fill:#0569FF;fill-rule:nonzero}
    .fil2 {fill:#0687FF;fill-rule:nonzero}
    .fil5 {fill:#4819C6;fill-rule:nonzero}
    .fil3 {fill:#61EF81;fill-rule:nonzero}
    .fil11 {fill:#64ED81;fill-rule:nonzero}
    .fil7 {fill:#D884FF;fill-rule:nonzero}
    .fil10 {fill:#EDEFF2;fill-rule:nonzero}
    .fil0 {fill:white;fill-rule:nonzero}
    .fil13 {fill:white;fill-rule:nonzero}
    .fil15 {fill:#B8CAD4;fill-rule:nonzero;fill-opacity:0.490196}
    .fil9 {fill:#030A38;fill-rule:nonzero}
    .fil19 {fill:url(#id13);fill-rule:nonzero}
    .fil17 {fill:url(#id14);fill-rule:nonzero}
    .fil14 {fill:url(#id15);fill-rule:nonzero}
    .fil8 {fill:url(#id16);fill-rule:nonzero}
    .fil18 {fill:url(#id17);fill-rule:nonzero}
    .fil16 {fill:url(#id18);fill-rule:nonzero}
    .fil12 {fill:url(#id19);fill-rule:nonzero}
   ]]>
  </style>
   <clipPath id="id0">
    <path d="M-0 0l37615.67 0 0 37615.67 -37615.67 0 0 -37615.67z"/>
   </clipPath>
         <mask id="id1">
  <linearGradient id="id2" gradientUnits="userSpaceOnUse" x1="-2018.65" y1="37925.88" x2="10231.57" y2="24164.59">
   <stop offset="0" style="stop-opacity:0.756863; stop-color:white"/>
   <stop offset="1" style="stop-opacity:0; stop-color:white"/>
  </linearGradient>
          <rect style="fill:url(#id2)" x="5740.89" y="14199.76" width="16049.31" height="11989.84"/>
         </mask>
      <mask id="id3">
  <linearGradient id="id4" gradientUnits="userSpaceOnUse" x1="8182.17" y1="28826.6" x2="9193.5" y2="30242.45">
   <stop offset="0" style="stop-opacity:0.639216; stop-color:white"/>
   <stop offset="1" style="stop-opacity:0; stop-color:white"/>
  </linearGradient>
       <rect style="fill:url(#id4)" x="8053.36" y="28881.48" width="1287.69" height="1332.29"/>
      </mask>
       <mask id="id5">
  <linearGradient id="id6" gradientUnits="userSpaceOnUse" x1="15646.31" y1="15956.83" x2="24268.23" y2="30614.13">
   <stop offset="0" style="stop-opacity:0.756863; stop-color:white"/>
   <stop offset="1" style="stop-opacity:0; stop-color:white"/>
  </linearGradient>
        <rect style="fill:url(#id6)" x="14893.45" y="21390.83" width="14827.87" height="11779.7"/>
       </mask>
      <mask id="id7">
  <linearGradient id="id8" gradientUnits="userSpaceOnUse" x1="28474.05" y1="10631.91" x2="22217.86" y2="16383.56">
   <stop offset="0" style="stop-opacity:1; stop-color:white"/>
   <stop offset="1" style="stop-opacity:0; stop-color:white"/>
  </linearGradient>
       <rect style="fill:url(#id8)" x="20776.74" y="13396.17" width="3789.27" height="5140.91"/>
      </mask>
      <mask id="id9">
  <linearGradient id="id10" gradientUnits="userSpaceOnUse" x1="9478.95" y1="34173.87" x2="29834.26" y2="21568.04">
   <stop offset="0" style="stop-opacity:1; stop-color:white"/>
   <stop offset="1" style="stop-opacity:0; stop-color:white"/>
  </linearGradient>
       <rect style="fill:url(#id10)" x="15874.25" y="17923.9" width="14582.58" height="15548.06"/>
      </mask>
      <mask id="id11">
  <linearGradient id="id12" gradientUnits="userSpaceOnUse" x1="-187.38" y1="24139.21" x2="12765.62" y2="31454.27">
   <stop offset="0" style="stop-opacity:1; stop-color:white"/>
   <stop offset="1" style="stop-opacity:0; stop-color:white"/>
  </linearGradient>
       <rect style="fill:url(#id12)" x="1993.08" y="25487.97" width="14634.63" height="8030.03"/>
      </mask>
  <linearGradient id="id13" gradientUnits="userSpaceOnUse" x1="9478.95" y1="34173.87" x2="29834.26" y2="21568.04">
   <stop offset="0" style="stop-opacity:1; stop-color:white"/>
   <stop offset="1" style="stop-opacity:1; stop-color:white"/>
  </linearGradient>
  <linearGradient id="id14" gradientUnits="userSpaceOnUse" x1="36615.22" y1="10210.33" x2="26469.39" y2="17976.24">
   <stop offset="0" style="stop-opacity:1; stop-color:white"/>
   <stop offset="1" style="stop-opacity:0; stop-color:white"/>
  </linearGradient>
  <linearGradient id="id15" gradientUnits="userSpaceOnUse" xlink:href="#id13" x1="15646.31" y1="15956.83" x2="24268.23" y2="30614.13">
  </linearGradient>
  <linearGradient id="id16" gradientUnits="userSpaceOnUse" xlink:href="#id13" x1="-2018.65" y1="37925.88" x2="10231.57" y2="24164.59">
  </linearGradient>
  <linearGradient id="id17" gradientUnits="userSpaceOnUse" x1="28474.05" y1="10631.91" x2="22217.86" y2="16383.56">
   <stop offset="0" style="stop-opacity:1; stop-color:black"/>
   <stop offset="1" style="stop-opacity:1; stop-color:black"/>
  </linearGradient>
  <linearGradient id="id18" gradientUnits="userSpaceOnUse" xlink:href="#id14" x1="23868.86" y1="16431.24" x2="14187.26" y2="3715.16">
  </linearGradient>
  <linearGradient id="id19" gradientUnits="userSpaceOnUse" xlink:href="#id13" x1="8182.17" y1="28826.6" x2="9193.5" y2="30242.45">
  </linearGradient>
 </defs>
 <g id="Layer_x0020_1">
  <metadata id="CorelCorpID_0Corel-Layer"/>
  <g>
  </g>
  <g style="clip-path:url(#id0)">
   <g>
    <g id="_105553245022464">
     <path class="fil0" d="M33709.72 7044.46c-26.39,-167.05 -183.19,-281.01 -350.2,-254.64 -167.07,26.43 -281.07,183.21 -254.64,350.24 26.41,167.05 183.19,281.03 350.22,254.62 167.05,-26.39 281.03,-183.19 254.62,-350.22z"/>
     <path class="fil1 str0" d="M2897.48 19463.5c-687.81,-311.58 -1497.96,-6.65 -1809.62,681.16 -311.58,687.77 -6.65,1497.95 681.16,1809.6 687.79,311.6 1497.95,6.65 1809.56,-681.14 311.6,-687.81 6.66,-1497.98 -681.1,-1809.62z"/>
     <path class="fil2" d="M-659.33 28934.01c-212.68,-96.35 -463.21,-2.03 -559.56,210.62 -96.36,212.67 -2.05,463.21 210.6,559.56 212.68,96.36 463.21,2.07 559.57,-210.6 96.31,-212.68 2.05,-463.21 -210.62,-559.57z"/>
     <path class="fil2" d="M15713.98 16672.58c-317.28,-33.13 -601.34,197.27 -634.45,514.57 -33.11,317.28 197.27,601.34 514.55,634.45 317.32,33.11 601.36,-197.27 634.49,-514.59 33.07,-317.28 -197.29,-601.36 -514.59,-634.43z"/>
     <path class="fil3" d="M26253.12 5672.22c-233.14,-622.24 -926.61,-937.68 -1548.85,-704.54 -622.29,233.16 -937.72,926.61 -704.56,1548.87 233.12,622.27 926.63,937.72 1548.89,704.56 622.24,-233.16 937.68,-926.59 704.52,-1548.89z"/>
     <path class="fil3" d="M36157.5 17659.93c-195.12,281.57 -125.01,667.95 156.55,863.03 281.55,195.01 667.93,124.94 863.01,-156.59 195.09,-281.55 124.98,-667.93 -156.59,-863.01 -281.55,-195.09 -667.93,-124.98 -862.97,156.57z"/>
     <path class="fil1 str1" d="M10339.48 10336.38c-101.63,-415.89 -521.16,-670.67 -937.05,-569.05 -415.89,101.57 -670.72,521.1 -569.11,937.01 101.63,415.89 521.16,670.65 937.05,569.09 415.89,-101.63 670.67,-521.16 569.11,-937.05z"/>
     <path class="fil4" d="M24401.59 17931.43c-725.72,4.71 -1361.27,162.66 -1908.4,435.02l-17.81 -261.88c-3569.89,539.75 -4182.93,3025.75 -6593.83,3753.86 0,0 1005.4,1898.42 621.74,4291.55 0,0 1478.41,62.64 3770.79,-909.47 199.18,559.13 483.51,1067.81 852.63,1486.13l-538.8 2905.67c1472.72,-150.46 3053.32,-764.41 3909.75,-2427.68 175.15,-340.19 318.03,-673.33 436.19,-997.68 140.85,-12.77 2207.39,-176.57 4335.98,998.77 0,0 8.22,-16.41 21.56,-46.29 -1039.31,3383.65 -3845.08,5343.79 -6689.31,5846.54 -1138.22,201.21 -2195.84,188.59 -3111.14,77.18l-135.39 381.51 10318.8 76.97 -153.99 -2695.19c0.04,-0.13 4158.28,-12975.46 -5118.77,-12915.02z"/>
     <path class="fil5" d="M29520.36 30846.45c0,0 -3850.3,385.02 -8855.69,-770.06l-770.08 3773.3 10087.8 -134.59c0,0 308.02,-1328.52 -462.04,-2868.65z"/>
     <g>
      <g>
       <path class="fil0" d="M28642.31 30932.26c120.34,458.21 224.96,921.71 271.92,1393.84 45.94,462.44 35.33,926.57 -4.54,1389 -6.19,72.12 106.28,71.68 112.47,0 41.1,-476.94 50.73,-955.53 0.06,-1432.13 -49.68,-467.52 -152.17,-926.48 -271.48,-1380.63 -18.37,-69.92 -126.85,-40.25 -108.43,29.91z"/>
      </g>
     </g>
     <g>
      <g>
       <path class="fil0" d="M26524.45 30943.1c304.87,963.05 1444.57,1539.33 2400.12,1204.31 67.87,-23.82 38.66,-132.5 -29.91,-108.47 -896.37,314.33 -1974.35,-217.78 -2261.76,-1125.74 -21.77,-68.77 -130.4,-39.37 -108.45,29.89z"/>
      </g>
     </g>
     <g>
      <g>
       <path class="fil0" d="M25945.38 31240.31c371.1,1260.69 1798.91,2067.25 3070.25,1733.82 69.96,-18.37 40.29,-126.85 -29.91,-108.47 -1211.76,317.82 -2578.1,-453.37 -2931.91,-1655.27 -20.4,-69.29 -128.94,-39.78 -108.43,29.91z"/>
      </g>
     </g>
     <g>
      <path class="fil6" d="M23168.55 12282.69c-58.66,23.84 -98.7,-61.95 -100.44,-125.22 -13.31,-477.15 276.21,-949.44 707.47,-1154.04 431.27,-204.64 980.19,-130.18 1341.37,181.93 87.9,75.89 167.8,166 274.6,211.63 263.16,112.43 547.28,-83.96 827.99,-139.61 433.3,-85.89 888.35,202.9 1064.3,608.1 175.95,405.17 102.45,889.48 -118.54,1271.95 -208.91,361.52 -555.4,754.05 -383.3,1134.49 115.92,256.33 427.74,369.22 574.19,609.4 130.24,213.53 95.25,513.88 -80.53,691.81 -125.24,126.72 -311.92,197.98 -436.25,317.23 -147.96,141.85 -136.08,397.64 35.12,510.36 170.73,112.34 303.25,-98.32 418.32,77.41 115.11,175.72 -17.25,398.65 -210.08,496.67 -304.57,154.83 -880.31,264.14 -1200.29,-242.31 -319.97,-506.49 63.83,-706.46 -217.4,-999.65 -281.19,-293.21 -381.97,2.51 -757.93,-282.12 -215.77,-163.37 -526.02,-735.87 -504.57,-1005.66l-1234.03 -2162.35z"/>
     </g>
     <g>
      <path class="fil6" d="M20761.13 13891.07c-55.52,-365.73 93.45,-743 339.25,-1019.49 245.78,-276.47 579.4,-461.91 925.58,-592.38 630.99,-237.73 1337.12,-305.24 1984.69,-117.3 511.3,148.36 989.44,470.45 1235.07,942.79 148.66,285.9 206.08,610.86 227.89,932.36 31.87,469.64 -10,950.68 -182.73,1388.58 -172.72,437.89 -484.64,830.4 -903.25,1045.69 -672.75,346.05 -1546.38,169.14 -2104.86,-341.22l-1521.63 -2239.03z"/>
     </g>
     <g>
      <g>
       <g>
        <path class="fil7" d="M21069.78 19813.84c0,0 -2940.68,2460.94 -6214.25,2026.75 -3273.63,-434.22 -4179.71,-4148.71 -4262.75,-5500.65 0,0 -42.21,-634.72 -415.72,-1029.72 -341.39,-442.24 -829.37,-804.99 -1162.39,-1007.12 -73.02,-44.29 -150.45,-87.15 -235.47,-94.97 -85.09,-7.83 -179.8,28.4 -215.69,105.92 -32.5,70.28 -9.96,152.95 18.44,224.98 66.26,167.7 165.31,321 286.3,454.63 -268.2,17.31 -562.14,-5.07 -745.89,-65.76 -300.07,-99.1 -575.03,-260.18 -854.59,-407.5 -84.28,-44.43 -172.99,-88.69 -268.24,-90.29 -95.27,-1.63 -198.47,52.86 -220.86,145.49 -5.55,22.83 -5.3,45.31 -1.76,67.37 -329.43,-176.15 -490.44,-50.77 -539.2,23.04 -52.09,78.86 -26.12,175.71 24.21,261.25 -213.99,-70.17 -384.21,-59.75 -493.49,159.35 -61.91,124.17 22.5,284.23 193.74,446.11 -20.64,21.08 -37.55,47.05 -47.68,79.36 -47.47,151.71 62.32,319.31 169.14,428.13 382.99,389.77 952.94,698.91 1467.71,758.76 -2.95,1126.73 190.26,3152.87 1374.58,5197.13 2063.28,3561.4 6990.86,6026.21 12856.99,2410.46l-713.12 -4592.71z"/>
       </g>
       <g>
        <path class="fil7" d="M21069.78 19813.84c0,0 -2940.68,2460.94 -6214.25,2026.75 -3273.63,-434.22 -4179.71,-4148.71 -4262.75,-5500.65 0,0 -42.21,-634.72 -415.72,-1029.72 -341.39,-442.24 -829.37,-804.99 -1162.39,-1007.12 -73.02,-44.29 -150.45,-87.15 -235.47,-94.97 -85.09,-7.83 -179.8,28.4 -215.69,105.92 -32.5,70.28 -9.96,152.95 18.44,224.98 66.26,167.7 165.31,321 286.3,454.63 -268.2,17.31 -562.14,-5.07 -745.89,-65.76 -300.07,-99.1 -575.03,-260.18 -854.59,-407.5 -84.28,-44.43 -172.99,-88.69 -268.24,-90.29 -95.27,-1.63 -198.47,52.86 -220.86,145.49 -5.55,22.83 -5.3,45.31 -1.76,67.37 -329.43,-176.15 -490.44,-50.77 -539.2,23.04 -52.09,78.86 -26.12,175.71 24.21,261.25 -213.99,-70.17 -384.21,-59.75 -493.49,159.35 -61.91,124.17 22.5,284.23 193.74,446.11 -20.64,21.08 -37.55,47.05 -47.68,79.36 -47.47,151.71 62.32,319.31 169.14,428.13 382.99,389.77 952.94,698.91 1467.71,758.76 -2.95,1126.73 190.26,3152.87 1374.58,5197.13 2063.28,3561.4 6990.86,6026.21 12856.99,2410.46l-713.12 -4592.71z"/>
       </g>
       <g>
        <path class="fil8" style="mask:url(#id1)" d="M21069.78 19813.88c0,0 -2940.68,2460.9 -6214.25,2026.71 -3273.61,-434.2 -4179.69,-4148.71 -4262.75,-5500.65 0,0 -42.21,-634.72 -415.7,-1029.72 -341.43,-442.24 -829.39,-804.97 -1162.41,-1007.12 -73.02,-44.29 -150.46,-87.15 -235.47,-94.97 -85.09,-7.83 -179.8,28.4 -215.71,105.92 -32.48,70.26 -9.94,152.95 18.46,224.96 66.28,167.7 165.31,321.04 286.3,454.67 -268.2,17.27 -562.14,-5.09 -745.89,-65.78 -300.07,-99.1 -575.03,-260.18 -854.57,-407.5 -84.3,-44.41 -173,-88.7 -268.26,-90.29 -95.25,-1.65 -198.46,52.86 -220.86,145.47 -5.53,22.85 -5.3,45.33 -1.76,67.39 -329.43,-176.15 -490.44,-50.77 -539.2,23.04 -52.09,78.86 -26.14,175.71 24.21,261.25 -214.01,-70.17 -384.21,-59.77 -493.47,159.33 -61.93,124.19 22.46,284.27 193.71,446.13 -20.62,21.07 -37.53,47.03 -47.68,79.36 -47.47,151.71 62.33,319.31 169.16,428.11 382.99,389.77 952.94,698.95 1467.73,758.78 -2.97,1126.75 190.24,3152.89 1374.56,5197.15 2063.28,3561.38 6990.84,6026.19 12856.99,2410.42l-713.12 -4592.65z"/>
       </g>
       <path class="fil4" d="M22866.11 23848.64c-3709.99,2414.75 -6362.82,2301.34 -6362.82,2301.34 383.66,-2393.13 -621.74,-4291.55 -621.74,-4291.55 2410.9,-728.12 3023.95,-3214.11 6593.83,-3753.86l390.73 5744.07z"/>
       <g>
        <g>
         <path class="fil0" d="M16895.74 21458.84c752.17,1335.4 1155.92,2994.34 854.05,4516.99 -13.56,68.39 91.27,97.67 104.91,28.94 307.77,-1552.39 -97.67,-3238.53 -865.04,-4600.83 -34.36,-60.99 -128.37,-6.22 -93.91,54.9z"/>
        </g>
       </g>
       <path class="fil9" d="M9885.12 22860.76c437.95,-157.51 1141.08,193.3 1570.54,783.67 314.14,431.86 345.17,938.77 194.38,1205.81 -634.57,-438.68 -1091.09,-831.07 -1403.51,-1125.74 -194.66,-183.65 -456.78,-424.81 -633.11,-722.74 52.15,-59.52 188.06,-110.94 271.71,-141z"/>
      </g>
      <g>
       <g>
        <path class="fil6" d="M7615.22 16031.23c-311.33,-58.72 -591.35,-185.82 -868.83,-334.54 -228.04,-122.2 -485.75,-294.3 -754.74,-247.98 -51.38,8.87 -29.61,87.08 21.56,78.27 278.62,-48.03 584.26,185.57 823.41,309.28 240.85,124.61 489.71,222.82 757.03,273.24 51.05,9.61 72.92,-68.6 21.56,-78.27z"/>
       </g>
      </g>
      <g>
       <g>
        <path class="fil6" d="M7960.6 15627.84c-393.18,-112.05 -782.43,-244.28 -1140.83,-443.56 -186.56,-103.72 -362.33,-225.52 -561.66,-304.59 -48.55,-19.27 -69.61,59.17 -21.56,78.27 206.77,82 388.75,213.76 583.63,319.1 352.64,190.62 734.4,319.47 1118.84,429.05 50.33,14.32 71.79,-63.98 21.58,-78.27z"/>
       </g>
      </g>
      <g>
       <g>
        <path class="fil6" d="M9679.33 16250.92c-202.32,-371.48 -737.64,-459.95 -1051.78,-179.75 -39.07,34.8 18.48,92.08 57.39,57.36 276.59,-246.68 748.05,-160.27 924.31,163.35 25.01,45.87 95.1,4.96 70.07,-40.96z"/>
       </g>
      </g>
      <g>
       <g>
        <path class="fil6" d="M8155.72 15258.45c-478.36,-98.16 -906.39,-379.92 -1321.76,-623.63 -45.12,-26.49 -86.02,43.62 -40.96,70.05 421.16,247.12 855.97,532.27 1341.16,631.83 50.98,10.48 72.79,-67.73 21.56,-78.25z"/>
       </g>
      </g>
     </g>
     <g>
      <g>
       <path class="fil10" d="M20315.18 30461.64c450.93,27.17 884.83,-178.64 1166.07,-529.16 43.39,-54.08 -33.09,-131.56 -76.93,-76.91 -265.06,330.36 -663.43,522.92 -1089.14,497.3 -69.94,-4.21 -69.69,104.58 0,108.77z"/>
      </g>
     </g>
     <g>
      <g>
       <path class="fil10" d="M19989.16 31077.28c843.75,96.94 1704.94,-294.25 2182.32,-997.22 39.41,-58.06 -54.81,-112.57 -93.97,-54.9 -457.2,673.29 -1283.52,1035.81 -2088.35,943.33 -69.42,-7.99 -68.86,100.88 0,108.79z"/>
      </g>
     </g>
     <g>
      <g>
       <path class="fil0" d="M21241.48 18426.35c358.29,528.15 981.25,763.24 1596.97,814.6 681.98,56.9 1398.46,-89.95 2002,-412.94 309.43,-165.57 589.87,-384.81 800.64,-667.1 41.9,-56.11 -52.49,-110.42 -93.91,-54.89 -368.34,493.28 -967.54,782.43 -1552.43,927.89 -610.38,151.81 -1290.74,167.11 -1883.69,-64.48 -310.54,-121.32 -587.38,-320.48 -775.65,-597.97 -39.09,-57.6 -133.38,-3.24 -93.93,54.89z"/>
      </g>
     </g>
     <g>
      <g>
       <path class="fil0" d="M20225.4 21725.55c-172.74,823.2 -263.59,1669.44 -163.05,2508.4 108.68,906.54 440.48,1758.41 938.79,2521.06 39.43,60.38 136.85,4.08 97.11,-56.76 -494.98,-757.51 -827.45,-1606.45 -928.51,-2508.38 -91.4,-815.08 -3.64,-1635.04 164.12,-2434.42 14.82,-70.59 -93.59,-100.79 -108.47,-29.89z"/>
      </g>
     </g>
     <path class="fil7" d="M25198.03 15643.59c-83.29,-344.25 -434.48,-557.24 -784.46,-475.75 -349.97,81.48 -566.16,426.52 -482.9,770.73 83.25,344.25 434.45,557.22 784.44,475.73 349.94,-81.41 566.16,-426.52 482.92,-770.71z"/>
     <g>
      <g>
       <path class="fil6" d="M24646.06 15458.19c-238.35,18.71 -417,234.98 -384.73,472.54 7.24,53.49 88.46,30.72 81.24,-22.39 -24.57,-180.95 124.78,-351.85 303.5,-365.89 53.68,-4.19 54.14,-88.51 0,-84.26z"/>
      </g>
     </g>
     <path class="fil6" d="M22358.79 33510.71l-13607.63 0 -77.04 -570.64 13031.83 0c329.77,0 608.73,243.84 652.84,570.64z"/>
     <path class="fil11" d="M15788.15 33510.71l-11921.61 0c-407.9,0 -755.66,-295.74 -821.21,-698.4l-1033.95 -6351.31c-82.4,-506.24 308.34,-965.74 821.25,-965.74l11921.57 0c407.94,0 755.73,295.72 821.25,698.36l1033.95 6351.31c82.4,506.24 -308.36,965.77 -821.25,965.77z"/>
     <path class="fil5" d="M9330.56 29486.61c34.91,362.29 -220.36,683.31 -570.15,717.01 -349.82,33.69 -661.65,-232.7 -696.56,-595 -34.89,-362.29 220.38,-683.27 570.17,-716.97 349.82,-33.69 661.65,232.68 696.54,594.96z"/>
     <path class="fil1 str2" d="M9330.56 29486.61c34.91,362.29 -220.36,683.31 -570.15,717.01 -349.82,33.69 -661.65,-232.7 -696.56,-595 -34.89,-362.29 220.38,-683.27 570.17,-716.97 349.82,-33.69 661.65,232.68 696.54,594.96z"/>
     <path class="fil12" style="mask:url(#id3)" d="M9330.56 29486.59c34.91,362.31 -220.36,683.32 -570.15,717.03 -349.84,33.69 -661.65,-232.7 -696.56,-595 -34.91,-362.29 220.38,-683.27 570.15,-716.97 349.82,-33.69 661.67,232.68 696.56,594.95z"/>
     <path class="fil13" d="M37647.75 33869.13l-37385.72 0c-108.49,0 -196.41,-91.21 -196.41,-203.74l0 -25.66c0,-112.53 87.92,-203.74 196.41,-203.74l37385.72 0 0 433.14z"/>
     <g>
      <path class="fil7" d="M29396.09 21398.15l-4220.27 279.69c0,0 876.36,2507.82 -678.15,5526.79 -1554.48,3019 -5495.65,2584.33 -6844.91,2187.02l-4.1 7.64c-521.18,-132.56 -1064.51,-296.22 -1382.79,-401.6 -477,-157.88 -763.35,-258.22 -913.9,-45.75 -111.21,157.07 -55.33,345.47 24.67,473.44 -164.37,33.3 -293.15,114.35 -344.29,267.01 -59,175.99 67.29,320.46 215.96,456.37 -152.23,38.63 -283.48,108.53 -331.88,252.86 -64.92,193.76 81.5,358.53 262.53,494.29 -73.52,51.13 -140.49,118.1 -160.14,207.9 -82.86,378.41 802.94,903.09 1629.81,1240.68 939.27,392.45 3213.04,1145.92 5953.44,661.49 4191.2,-740.83 8300.29,-4645.1 6794.01,-11607.83z"/>
      <path class="fil14" style="mask:url(#id5)" d="M29396.09 21398.13l-4220.27 279.71c0,0 876.36,2507.82 -678.17,5526.77 -1554.46,3019 -5495.63,2584.35 -6844.89,2187.03l-4.1 7.64c-521.18,-132.56 -1064.49,-296.22 -1382.79,-401.6 -476.98,-157.86 -763.35,-258.24 -913.9,-45.73 -111.21,157.05 -55.31,345.47 24.67,473.42 -164.37,33.32 -293.15,114.35 -344.29,267.01 -58.98,175.99 67.29,320.46 215.96,456.37 -152.23,38.63 -283.48,108.53 -331.9,252.86 -64.9,193.78 81.52,358.53 262.55,494.29 -73.54,51.15 -140.49,118.1 -160.15,207.92 -82.84,378.39 802.96,903.08 1629.83,1240.66 939.25,392.47 3213.04,1145.94 5953.44,661.51 4191.2,-740.85 8300.29,-4645.14 6794.01,-11607.87z"/>
      <g>
       <g>
        <path class="fil6" d="M16222.77 29740.22c-290.97,-79.72 -567.08,-195.45 -828.18,-346.66 -42.44,-24.63 -80.8,41.12 -38.42,65.71 266.69,154.45 549.12,272.91 846.35,354.34 47.28,12.93 67.51,-60.44 20.24,-73.38z"/>
       </g>
      </g>
      <g>
       <g>
        <path class="fil6" d="M15973.93 31216.74c-291.01,-79.72 -567.1,-195.45 -828.18,-346.66 -42.44,-24.59 -80.81,41.15 -38.42,65.71 266.69,154.45 549.14,272.89 846.35,354.34 47.3,12.96 67.47,-60.44 20.24,-73.38z"/>
       </g>
      </g>
      <g>
       <g>
        <path class="fil6" d="M16072.21 30444.82c-291.24,-79.57 -568.9,-192.39 -830.34,-343.63 -42.48,-24.55 -80.83,41.19 -38.42,65.71 267.05,154.49 551.07,270 848.52,351.3 47.28,12.95 67.45,-60.46 20.24,-73.37z"/>
       </g>
      </g>
      <path class="fil4" d="M29204.55 20614.55c1182.92,4408.41 65.28,6591.17 65.28,6591.17 -2205.07,-1217.56 -4344.19,-997.99 -4344.19,-997.99 434.43,-2138.76 -579.13,-3119.45 -911.33,-5848.63l5190.24 255.45z"/>
      <g>
       <g>
        <path class="fil0" d="M25157.64 25290.68c1475.94,-240.49 3035.13,118.6 4335.42,832.54 63.45,34.85 120.28,-62.22 56.74,-97.11 -1328.9,-729.63 -2914.65,-1089.51 -4422.04,-843.9 -71.24,11.62 -41.02,120.02 29.87,108.47z"/>
       </g>
      </g>
      <path class="fil9" d="M23955.78 32312.08c-303.17,-372.57 -1109.94,-431.96 -1801.96,-132.58 -506.24,218.95 -802.23,654.87 -810.6,973.05 595.64,17.18 2164.55,-299.7 2777.75,-570.72 -14.46,-80.76 -107.28,-198.59 -165.19,-269.75z"/>
     </g>
     <g>
      <g>
       <path class="fil0" d="M25093.95 26133.78c190.09,-1093.91 60.96,-2203.1 28.76,-3304.02 -16.26,-555.32 2.13,-1106.57 72.92,-1657.83 67.95,-529.13 181.74,-1073.32 466.12,-1532.53 278.41,-449.46 729.06,-816.61 1268.2,-872.13 71.28,-7.33 72.02,-119.88 0,-112.47 -1013.96,104.43 -1569.36,1075.41 -1759.31,1980.99 -239.09,1139.83 -153.18,2295.33 -104.33,3448.38 28.59,674.09 35.08,1352.75 -80.8,2019.72 -12.33,70.8 96.04,101.17 108.43,29.89z"/>
      </g>
     </g>
     <g>
      <g>
       <path class="fil0" d="M29381.5 27251.68c266.69,-1065.36 398.63,-2160.28 392.3,-3258.52 -0.4,-72.33 -112.87,-72.48 -112.47,0 6.28,1088.66 -123.9,2172.56 -388.26,3228.64 -17.6,70.21 90.83,100.18 108.43,29.87z"/>
      </g>
     </g>
     <g>
      <path class="fil15" d="M20162.99 10552.89c-659.92,-211.86 -1116.53,-929.41 -1029.03,-1616.96 56.92,-446.7 309.01,-841.11 464.13,-1263.81 567.24,-1545.46 -382.95,-3447.11 -1935.7,-3994.01 -1311.8,-462.04 -2899.68,35.22 -3713.69,1162.89 -813.99,1127.69 -785.88,2791.38 65.74,3890.92 659.12,851.08 1765.65,1493.31 2814.31,1736.29 1205.44,279.39 2644.52,278.39 3340.46,87l-6.22 -2.32z"/>
     </g>
     <g>
      <path class="fil16" d="M20162.99 10552.91c-659.92,-211.88 -1116.53,-929.43 -1029.01,-1616.98 56.9,-446.7 308.99,-841.12 464.13,-1263.81 567.24,-1545.46 -382.97,-3447.11 -1935.72,-3994.01 -1311.8,-462.04 -2899.68,35.2 -3713.69,1162.89 -813.97,1127.69 -785.88,2791.38 65.74,3890.94 659.12,851.06 1765.65,1493.27 2814.32,1736.29 1205.42,279.37 2644.52,278.37 3340.44,86.98l-6.22 -2.3z"/>
     </g>
     <g>
      <path class="fil17" d="M29782.05 15830.07c572.06,-125.34 1013.71,-692.33 995.15,-1277.72 -12.05,-380.31 -192.48,-732.27 -289.15,-1100.31 -353.27,-1345.43 598.43,-2868.92 1948.38,-3204.53 1140.5,-283.54 2436.35,261.98 3030.69,1275.78 594.37,1013.84 437.4,2411.07 -367.09,3267.73 -622.66,663.06 -1604.92,1114.63 -2506.5,1235.01 -1036.38,138.38 -2246.84,22.21 -2816.91,-194.53l5.44 -1.44z"/>
     </g>
     <g>
      <path class="fil6" d="M21152.16 13112.29c-377.19,148.01 -753.2,339.69 -1006.85,655.67 -253.61,316 -355.7,782.52 -152.76,1133.23 183.17,316.59 597.91,561.51 527.4,920.41 -36.67,186.74 -199.49,316.61 -329.23,455.86 -129.78,139.2 -237.1,347.87 -141.85,512.62 61.01,105.6 184.4,153.95 289.8,215.29 146.79,85.41 278.47,223.24 293.63,392.37 15.19,169.19 -178.31,129.32 -301.7,319.81 -101.17,156.19 62.93,286.3 238.88,300.41 175.95,14.11 577.56,-57.76 837.45,-433.16 267.22,-386 139.11,-536.21 106.21,-1004.52 -15.03,-213.57 -71.12,-423.59 -73.15,-637.65 -2.03,-214.08 62.41,-445.52 235.74,-571.2l-523.57 -2259.14z"/>
     </g>
     <path class="fil7" d="M22380.01 18423l-0.02 -563.48c0,0 -1371.48,392.39 -1463.9,-818.53 -160.98,-2109.26 -326.21,-2671.94 492.57,-3377.73 818.72,-705.79 3100.62,65.42 3093.75,1841.69l56.3 2577.01c0,0 -305.56,295.99 -955.34,408.55 -681.01,117.95 -1223.37,-67.52 -1223.37,-67.52z"/>
     <path class="fil18" style="mask:url(#id7)" d="M22380.01 18423l-0.02 -563.48c0,0 -1371.48,392.39 -1463.88,-818.53 -161.02,-2109.28 -326.25,-2671.96 492.55,-3377.73 818.72,-705.79 3100.62,65.42 3093.75,1841.71l56.3 2576.97c0,0 -305.58,296.01 -955.36,408.57 -680.99,117.97 -1223.35,-67.52 -1223.35,-67.52z"/>
     <path class="fil6" d="M22337.52 15582.46c13.69,83.88 -5.96,156.77 -43.87,162.68 -37.92,5.97 -79.78,-57.24 -93.45,-141.18 -13.75,-83.92 5.92,-156.77 43.84,-162.7 37.92,-5.96 79.78,57.26 93.49,141.2z"/>
     <path class="fil6" d="M21254.39 15745.81c13.71,83.92 -5.9,156.82 -43.85,162.74 -37.92,5.96 -79.78,-57.26 -93.49,-141.14 -13.67,-83.97 5.94,-156.82 43.84,-162.78 37.96,-5.94 79.82,57.3 93.51,141.18z"/>
     <path class="fil6" d="M22333.82 17866.18c0,0 707.42,-160.6 1151.74,-714.79l-1125.7 1299.72 -26.04 -584.93z"/>
     <path class="fil9" d="M23953.64 15883.14c-95.04,-392.89 -495.82,-635.95 -895.26,-542.99 -399.4,92.98 -646.19,486.82 -551.17,879.64 95.06,392.91 495.84,635.97 895.3,542.99 399.42,-92.94 646.15,-486.78 551.13,-879.64z"/>
     <g>
      <path class="fil7" d="M21183.95 16343.67c-50.21,-207.44 -186.74,-371.1 -362.23,-467.58 25.18,328.53 59.58,708.83 94.37,1164.9 1.17,15.19 4.81,27.19 6.36,41.82 218.14,-170.8 330.36,-454.46 261.5,-739.15z"/>
      <path class="fil9" d="M21183.95 16343.67c-50.23,-207.44 -186.74,-371.1 -362.25,-467.6 25.22,328.54 59.6,708.85 94.41,1164.92 1.15,15.19 4.79,27.21 6.34,41.82 218.14,-170.8 330.36,-454.46 261.5,-739.15z"/>
     </g>
     <polygon class="fil9" points="21472.76,15151.08 21664.63,15106.42 21920.29,16163.23 21459.8,16270.42 "/>
     <path class="fil6" d="M22312.56 14909.82c2.8,57.6 -78.06,108.12 -180.59,112.8 -102.55,4.69 -187.9,-38.24 -190.7,-95.83 -2.78,-57.62 78.08,-108.12 180.61,-112.8 102.47,-4.69 187.87,38.22 190.68,95.83z"/>
     <path class="fil6" d="M21233.61 15052.76c30.33,49.37 -16.24,131.68 -104.06,183.81 -87.82,52.11 -183.63,54.37 -214.01,4.96 -30.33,-49.35 16.28,-131.66 104.06,-183.79 87.82,-52.13 183.65,-54.37 214.01,-4.98z"/>
     <g>
      <path class="fil6" d="M21265.3 13724.81c98.16,336.99 469.91,526 822.2,580.01 352.27,53.97 715.77,13.12 1065.11,83.11 349.36,69.98 707.44,299.01 757.03,646.12 13.54,94.7 4.86,197.96 57.82,278.16 57.78,87.57 178.65,120.86 282.14,97.49 103.49,-23.44 190.34,-94.03 256.31,-175.88 173.16,-214.87 219.58,-511.66 162.84,-780.07 -56.74,-268.35 -207.55,-510.4 -391.99,-715.88 -354.03,-394.5 -852.29,-673.48 -1385.32,-720.04 -533.01,-46.48 -1093.76,155.69 -1432.37,563.23l-193.76 143.74z"/>
     </g>
     <g>
      <path class="fil6" d="M21983.81 16813.91c-98.45,24.61 -270.81,5.42 -352.67,-88.76 -29.01,-33.42 -81.89,-108.91 -15.13,-159.81 66.78,-50.88 173.25,8.85 261.13,-13.94 86.02,-22.25 167.01,-172.64 287.26,-153.7 90.12,14.25 133.75,58.1 142.4,130.59 12.96,107.61 -111.09,244.24 -306.56,285.63l-16.43 0z"/>
     </g>
     <g>
      <path class="fil6" d="M24667.58 12522.51c-383.28,132.37 -767.28,308.97 -1034.35,616.91 -267.11,307.96 -389.27,775.13 -201.71,1139.18 169.33,328.62 573.15,595.37 487.15,955.15 -44.74,187.18 -213.01,311.08 -348.67,445.94 -135.7,134.86 -251.96,340.93 -163.95,511.97 56.44,109.6 177.58,164.18 280.27,231.07 142.98,93.11 268.58,238.58 276.4,410.37 7.85,171.8 -271.78,128.9 -315.27,309.59 -43.51,180.68 14.38,297.69 361.02,385.78 171.3,43.53 419.74,5.48 548.58,-116.38 342.73,-324.12 333.77,-890.19 321.15,-1365.37 -5.76,-216.69 -52.72,-431.67 -45.5,-648.32 7.24,-216.61 81.62,-447.72 260.25,-566.89l-425.37 -2309z"/>
     </g>
     <path class="fil11" d="M23901.66 15816.15c0,-382.13 294.3,-691.94 657.34,-691.94 363.03,0 657.34,309.82 657.34,691.94 0,382.15 -294.3,691.92 -657.34,691.92 -363.03,0 -657.34,-309.78 -657.34,-691.92z"/>
     <g>
      <path class="fil11" d="M24559.02 15712.34c57.34,0 103.8,-46.46 103.8,-103.78l0 -853.74c0,-551.13 -227.33,-1059.76 -623.71,-1395.55 -278.12,-235.59 -766.28,-500.48 -1503.77,-367.42 -339.69,61.26 -617.6,242.88 -560.25,242.88 58.37,0 181.62,-32.44 544.91,-84.34 524.47,-74.92 1034.12,70.05 1384.92,367.29 349.72,296.24 550.33,747.19 550.33,1237.14l0 853.74c0,57.32 46.46,103.78 103.78,103.78z"/>
     </g>
     <path class="fil0" d="M24206.69 15816.15c0,-204.83 157.74,-370.87 352.31,-370.87 194.59,0 352.31,166.03 352.31,370.87 0,204.81 -157.72,370.85 -352.31,370.85 -194.57,0 -352.31,-166.03 -352.31,-370.85z"/>
     <g>
      <g>
       <path class="fil0" d="M22936.5 16602.24c622.87,-24.67 1213.66,-274.27 1665.17,-704.18 50.79,-48.39 -26.22,-125.22 -76.95,-76.93 -430.29,409.74 -994.44,648.82 -1588.22,672.33 -69.78,2.78 -70.11,111.59 0,108.77z"/>
      </g>
     </g>
     <path class="fil3" d="M22662.4 16536.59c-13.16,163.37 107.38,306.35 269.2,319.35 161.82,13 303.65,-108.85 316.77,-272.22 13.16,-163.35 -107.4,-306.35 -269.2,-319.37 -161.82,-13 -303.65,108.89 -316.77,272.24z"/>
     <path class="fil19" style="mask:url(#id9)" d="M24401.59 17931.43c-725.72,4.69 -1361.27,162.66 -1908.4,435.02l-17.81 -261.88c-3569.89,539.75 -4182.93,3025.73 -6593.83,3753.86 0,0 1005.4,1898.42 621.74,4291.55 0,0 1478.41,62.64 3770.79,-909.47 199.18,559.12 483.51,1067.81 852.63,1486.13l-538.8 2905.69c1472.72,-150.48 3053.34,-764.43 3909.75,-2427.72 175.15,-340.17 318.03,-673.31 436.19,-997.64 140.85,-12.79 2207.39,-176.57 4335.98,998.77 0,0 8.22,-16.43 21.56,-46.31 -1039.33,3383.65 -3845.08,5343.79 -6689.3,5846.54 -1138.22,201.21 -2195.86,188.57 -3111.16,77.18l-135.39 381.51c0,0 2669.2,-156.9 4335.52,-664.02 1666.26,-507.14 3187.66,-1883.63 3187.66,-1883.63l2641.63 -70.57c0.02,-0.13 4158.28,-12975.46 -5118.77,-12915.02z"/>
     <path class="fil2" style="mask:url(#id11)" d="M15788.15 33510.71l-11921.61 0c-407.92,0 -755.66,-295.74 -821.21,-698.38l-1033.95 -6351.33c-82.4,-506.22 308.34,-965.74 821.23,-965.74l11921.59 0c407.94,0 755.73,295.72 821.25,698.36l1033.95 6351.31c82.4,506.24 -308.34,965.77 -821.25,965.77z"/>
    </g>
   </g>
  </g>
  <polygon class="fil20" points="-0,0 37615.67,0 37615.67,37615.67 -0,37615.67 "/>
 </g>
</svg>
