<?xml version="1.0" encoding="UTF-8"?>
<!DOCTYPE svg PUBLIC "-//W3C//DTD SVG 1.1//EN" "http://www.w3.org/Graphics/SVG/1.1/DTD/svg11.dtd">
<!-- Creator: CorelDRAW -->
<svg xmlns="http://www.w3.org/2000/svg" xml:space="preserve" width="21.5618mm" height="21.7886mm" version="1.1" style="shape-rendering:geometricPrecision; text-rendering:geometricPrecision; image-rendering:optimizeQuality; fill-rule:evenodd; clip-rule:evenodd"
viewBox="0 0 44.81 45.28"
 xmlns:xlink="http://www.w3.org/1999/xlink"
 xmlns:xodm="http://www.corel.com/coreldraw/odm/2003">
 <defs>
  <style type="text/css">
   <![CDATA[
    .fil0 {fill:#194935;fill-rule:nonzero}
   ]]>
  </style>
 </defs>
 <g id="Layer_x0020_1">
  <metadata id="CorelCorpID_0Corel-Layer"/>
  <g id="_105553193521888">
   <g>
    <path class="fil0" d="M39.01 19.47c0,0 1.25,-4.29 1.8,-8.07 0.36,-2.49 -0.1,-4.29 -2.3,-6.04 -2.19,-1.74 -6.68,-0.85 -8.97,0.45 -2.29,1.3 -18.99,9.67 -18.99,9.67 0,0 13.01,-11.02 17.74,-13.66 4.74,-2.64 9.27,-2.24 12.61,0.05 3.34,2.29 4.59,6.83 3.54,11.86 -1.05,5.03 -2.24,9.37 -2.24,9.37l-3.19 -3.64z"/>
   </g>
   <g>
    <path class="fil0" d="M19.47 6.12c0,0 -4.29,-1.25 -8.07,-1.8 -2.49,-0.36 -4.29,0.1 -6.04,2.3 -1.74,2.19 -0.85,6.68 0.45,8.97 1.3,2.29 9.67,18.99 9.67,18.99 0,0 -11.02,-13.01 -13.66,-17.74 -2.64,-4.74 -2.24,-9.27 0.05,-12.61 2.29,-3.34 6.83,-4.59 11.86,-3.54 5.03,1.05 9.37,2.24 9.37,2.24l-3.64 3.19z"/>
   </g>
   <path class="fil0" d="M5.79 25.8c0,0 -1.25,4.29 -1.8,8.07 -0.36,2.49 0.1,4.29 2.3,6.04 2.19,1.74 6.68,0.85 8.97,-0.45 2.29,-1.3 18.99,-9.67 18.99,-9.67 0,0 -13.01,11.02 -17.74,13.66 -4.74,2.64 -9.27,2.24 -12.61,-0.05 -3.34,-2.29 -4.59,-6.83 -3.54,-11.86 1.05,-5.03 2.24,-9.37 2.24,-9.37l3.19 3.64z"/>
   <path class="fil0" d="M25.33 39.16c0,0 4.29,1.25 8.07,1.8 2.49,0.36 4.29,-0.1 6.04,-2.3 1.74,-2.19 0.85,-6.68 -0.45,-8.97 -1.3,-2.29 -9.67,-18.99 -9.67,-18.99 0,0 11.02,13.01 13.66,17.74 2.64,4.74 2.24,9.27 -0.05,12.61 -2.29,3.34 -6.83,4.59 -11.86,3.54 -5.03,-1.05 -9.37,-2.24 -9.37,-2.24l3.64 -3.19z"/>
   <g>
    <path class="fil0" d="M28.64 22.2c0,3.68 -2.98,6.65 -6.65,6.65 -3.68,0 -6.65,-2.98 -6.65,-6.65 0,-3.68 2.98,-6.65 6.65,-6.65 3.68,0 6.65,2.98 6.65,6.65z"/>
   </g>
  </g>
 </g>
</svg>
