<?xml version="1.0" encoding="UTF-8"?>
<!DOCTYPE svg PUBLIC "-//W3C//DTD SVG 1.1//EN" "http://www.w3.org/Graphics/SVG/1.1/DTD/svg11.dtd">
<!-- Creator: CorelDRAW -->
<svg xmlns="http://www.w3.org/2000/svg" xml:space="preserve" width="21.5644mm" height="21.7904mm" version="1.1" style="shape-rendering:geometricPrecision; text-rendering:geometricPrecision; image-rendering:optimizeQuality; fill-rule:evenodd; clip-rule:evenodd"
viewBox="0 0 140.4 141.87"
 xmlns:xlink="http://www.w3.org/1999/xlink"
 xmlns:xodm="http://www.corel.com/coreldraw/odm/2003">
 <defs>
  <style type="text/css">
   <![CDATA[
    .fil0 {fill:white;fill-rule:nonzero}
   ]]>
  </style>
 </defs>
 <g id="Layer_x0020_1">
  <metadata id="CorelCorpID_0Corel-Layer"/>
  <g id="_105553119995360">
   <g id="_105553193521888">
    <g>
     <path class="fil0" d="M122.23 61.02c0,0 3.92,-13.44 5.64,-25.28 1.13,-7.8 -0.31,-13.44 -7.21,-18.92 -6.86,-5.45 -20.93,-2.66 -28.1,1.41 -7.17,4.07 -59.49,30.29 -59.49,30.29 0,0 40.76,-34.52 55.58,-42.79 14.85,-8.27 29.04,-7.02 39.5,0.16 10.46,7.17 14.38,21.4 11.09,37.15 -3.29,15.76 -7.02,29.35 -7.02,29.35l-9.99 -11.4 0 0.03z"/>
    </g>
    <g>
     <path class="fil0" d="M61.02 19.2c0,0 -13.44,-3.92 -25.28,-5.64 -7.8,-1.13 -13.44,0.31 -18.92,7.21 -5.45,6.86 -2.66,20.93 1.41,28.1 4.07,7.17 30.29,59.49 30.29,59.49 0,0 -34.52,-40.76 -42.79,-55.58 -8.27,-14.85 -7.02,-29.04 0.16,-39.5 7.17,-10.46 21.4,-14.38 37.15,-11.09 15.76,3.29 29.35,7.02 29.35,7.02l-11.4 9.99 0.03 0z"/>
    </g>
    <path class="fil0" d="M18.16 80.85c0,0 -3.92,13.44 -5.64,25.28 -1.13,7.8 0.31,13.44 7.21,18.92 6.86,5.45 20.93,2.66 28.1,-1.41 7.17,-4.07 59.49,-30.29 59.49,-30.29 0,0 -40.76,34.52 -55.58,42.79 -14.85,8.27 -29.04,7.02 -39.5,-0.16 -10.46,-7.17 -14.38,-21.4 -11.09,-37.15 3.29,-15.76 7.02,-29.35 7.02,-29.35l9.99 11.4 0 -0.03z"/>
    <path class="fil0" d="M79.38 122.7c0,0 13.44,3.92 25.28,5.64 7.8,1.13 13.44,-0.31 18.92,-7.21 5.45,-6.86 2.66,-20.93 -1.41,-28.1 -4.07,-7.17 -30.29,-59.49 -30.29,-59.49 0,0 34.52,40.76 42.79,55.58 8.27,14.85 7.02,29.04 -0.16,39.5 -7.17,10.46 -21.4,14.38 -37.15,11.09 -15.76,-3.29 -29.35,-7.02 -29.35,-7.02l11.4 -9.99 -0.03 0z"/>
    <g>
     <path class="fil0" d="M89.75 69.57c0,11.53 -9.34,20.83 -20.83,20.83 -11.53,0 -20.83,-9.34 -20.83,-20.83 0,-11.53 9.34,-20.83 20.83,-20.83 11.53,0 20.83,9.34 20.83,20.83z"/>
    </g>
   </g>
  </g>
 </g>
</svg>
